<svg width="16" height="16" viewBox="0 0 16 16" fill="none" xmlns="http://www.w3.org/2000/svg">
<g clip-path="url(#clip0_894_100)">
<path d="M7.38489 13.5391C8.08062 13.5392 8.53404 13.9528 8.60364 14.3389L8.67786 14.7549L8.58313 14.7588L8.44055 14.9326C8.23238 15.1859 7.84604 15.3847 7.38489 15.3848C6.60958 15.3848 6.15371 14.8845 6.15344 14.4619C6.15344 14.0394 6.60856 13.5391 7.38489 13.5391ZM4.92297 7.88477C5.11673 7.88477 5.30254 7.96166 5.43958 8.09863C5.57659 8.23564 5.6534 8.42148 5.65344 8.61523C5.65344 8.80903 5.5766 8.99479 5.43958 9.13184C5.30253 9.26888 5.11679 9.3457 4.92297 9.3457C4.72919 9.34568 4.5434 9.26886 4.40637 9.13184C4.2694 8.9948 4.1925 8.80899 4.1925 8.61523C4.19254 8.42148 4.26936 8.23564 4.40637 8.09863C4.5434 7.96163 4.72921 7.88479 4.92297 7.88477ZM9.84583 7.88477C10.0395 7.88477 10.2254 7.96173 10.3624 8.09863C10.4994 8.23564 10.5772 8.42148 10.5773 8.61523C10.5773 8.80904 10.4995 8.99479 10.3624 9.13184C10.2254 9.26884 10.0396 9.3457 9.84583 9.3457C9.65212 9.34562 9.4662 9.26881 9.32922 9.13184C9.19232 8.99481 9.11536 8.80894 9.11536 8.61523C9.1154 8.42151 9.19226 8.23564 9.32922 8.09863C9.4662 7.96166 9.65212 7.88485 9.84583 7.88477ZM12.1925 7.46875L12.1915 7.45703C12.1914 7.45346 12.1914 7.44986 12.1915 7.44629L12.1925 7.4209L12.1915 7.39551C12.1484 6.61167 11.9997 5.91518 11.7511 5.31055L11.6163 4.9834L11.2638 5.00098C10.7293 5.02709 10.1483 5.17307 9.61731 5.30371C9.06362 5.43994 8.54811 5.56363 8.0675 5.59473C7.594 5.62532 7.20511 5.56103 6.88586 5.36133C6.57027 5.16387 6.25508 4.79148 6.01282 4.07129L5.54016 2.66797L5.06458 4.07031C4.71088 5.11291 4.40757 5.37813 4.21204 5.47656C4.10065 5.53253 3.97781 5.55926 3.78625 5.58887C3.60866 5.61631 3.35154 5.64834 3.08704 5.73926L2.82922 5.82715L2.76379 6.09277C2.66482 6.49557 2.60335 6.9301 2.57727 7.39453L2.57629 7.4209L2.57727 7.44629V8H2.57629L2.57727 8.01367C2.57787 8.03729 2.57077 8.06037 2.55774 8.08008C2.54467 8.09983 2.52607 8.11535 2.50403 8.12402C2.48199 8.13269 2.45772 8.13445 2.43469 8.12891C2.41165 8.12334 2.39079 8.11056 2.37512 8.09277L1.86536 7.51465L1.54504 8.21582C1.43423 8.4583 1.34583 8.76762 1.34583 9.13477C1.34583 9.37905 1.44508 9.61847 1.55579 9.80859C1.67322 10.0103 1.83612 10.2108 2.02747 10.3867C2.23638 10.5788 2.48294 10.7145 2.6427 10.7949C2.71279 10.8302 2.80478 10.8737 2.82141 10.8818C2.85457 10.8981 2.81952 10.8838 2.77942 10.8535C2.76902 10.8457 2.72359 10.8114 2.68079 10.7529C2.65124 10.7126 2.50496 10.4942 2.63977 10.2314C2.64105 10.229 2.64237 10.2261 2.64368 10.2236C2.84297 10.346 3.0309 10.4231 3.07532 10.4502L3.07336 10.9619C3.09944 10.9621 3.12532 10.9709 3.14563 10.9873C3.16411 11.0023 3.1763 11.0231 3.18274 11.0459H3.18372C3.40256 12.0797 3.99685 12.8671 4.67786 13.4404L4.69055 13.4512L4.70325 13.46C4.71592 13.4693 4.72657 13.4815 4.7345 13.4951C4.74235 13.5086 4.74723 13.5236 4.74915 13.5391C4.75102 13.5547 4.74972 13.5708 4.74524 13.5859C4.7408 13.6009 4.7337 13.615 4.72375 13.627C4.71365 13.639 4.70071 13.6492 4.68665 13.6562C4.67266 13.6633 4.65735 13.667 4.64172 13.668C4.62601 13.6689 4.60965 13.6665 4.59485 13.6611C4.58026 13.6557 4.56709 13.6474 4.55579 13.6367L4.54504 13.627L4.53333 13.6172C3.9223 13.1032 3.39735 12.3481 3.11145 11.4287L3.03235 11.1729L2.77454 11.0977L2.66028 11.0596C2.39582 10.9627 2.14296 10.7992 1.87708 10.5547H1.8761C1.44169 10.1559 1.11536 9.6908 1.11536 9.13477C1.11536 8.60277 1.24805 8.1425 1.4845 7.80859L1.48547 7.80762C1.52288 7.75455 1.5804 7.69906 1.67688 7.62207L1.89465 7.44824L1.86243 7.17285C1.57722 4.74285 2.19688 3.0971 3.2179 2.05664C4.24998 1.00508 5.76198 0.5 7.38489 0.5C8.88486 0.500058 10.2705 0.935049 11.2745 1.83398C12.2215 2.68202 12.8761 3.98703 12.9357 5.86621L12.7697 5.94043V5.6543H12.7111V5.9668L12.2228 6.18457C12.2132 6.14108 12.2126 6.1051 12.213 6.08594C12.2132 6.07667 12.2137 6.0697 12.214 6.06641V6.06543C12.2137 6.06778 12.2127 6.07547 12.212 6.08301C12.2113 6.09165 12.2105 6.10433 12.2101 6.11914C12.2092 6.14893 12.2102 6.19548 12.2208 6.25L12.2999 6.6543H13.5382C14.2606 6.6543 14.8263 7.23548 14.8263 8V9.23047C14.8263 9.69316 14.6159 10.0922 14.297 10.3311L14.1261 10.459L14.1115 10.5771H12.9386L12.8009 10.6885C12.5648 10.8801 12.2892 11.0177 11.9943 11.0918L11.7218 11.1602L11.6378 11.4287C11.45 12.0322 11.2285 12.553 10.921 12.9326C10.9109 12.945 10.898 12.9554 10.8839 12.9629C10.8699 12.9703 10.8547 12.975 10.839 12.9766C10.8232 12.9781 10.8073 12.9763 10.7921 12.9717C10.7768 12.9671 10.7625 12.9593 10.7501 12.9492C10.7378 12.9391 10.7273 12.9271 10.7198 12.9131C10.7123 12.899 10.7077 12.8831 10.7062 12.8672C10.7047 12.8514 10.7065 12.8355 10.7111 12.8203C10.7157 12.8051 10.7234 12.7906 10.7335 12.7783L10.7345 12.7764C11.116 12.3063 11.438 11.7376 11.5841 11.0518C11.5898 11.0263 11.6039 11.0037 11.6241 10.9873C11.6444 10.971 11.6694 10.9621 11.6954 10.9619L11.6945 10.9609C11.7688 10.9606 11.831 10.9447 11.8507 10.9395C11.8828 10.931 11.9146 10.9206 11.9435 10.9102C12.0018 10.889 12.068 10.8601 12.1378 10.8262C12.2771 10.7584 12.4498 10.6591 12.6163 10.5283L12.8077 10.3779V8.11523H12.3077C12.2772 8.11523 12.2473 8.10365 12.2257 8.08203C12.2041 8.06039 12.1925 8.0306 12.1925 8V7.46875Z" stroke="#606060"/>
</g>
<defs>
<clipPath id="clip0_894_100">
<rect width="16" height="16" fill="white"/>
</clipPath>
</defs>
</svg>
