<svg width="16" height="16" viewBox="0 0 16 16" fill="none" xmlns="http://www.w3.org/2000/svg">
<g clip-path="url(#clip0_894_67)">
<path d="M4.34269 1.33334C3.47336 1.41934 2.88803 1.61268 2.45069 2.05068C1.66736 2.83534 1.66736 4.09868 1.66736 6.62601V9.30601C1.66736 11.8327 1.66736 13.0967 2.45069 13.882C3.23403 14.6673 4.49536 14.6667 7.01736 14.6667H8.35536C10.8774 14.6667 12.1387 14.6667 12.922 13.882C13.6334 13.1687 13.6994 12.0707 13.7054 9.98468" stroke="#F4F4F4" stroke-width="1.5" stroke-linecap="round" stroke-linejoin="round"/>
<path d="M7.01731 4.66669L7.68597 7.00002C8.05931 7.74002 8.52797 7.93335 9.69264 8.00002C10.6186 7.97735 11.156 7.86802 11.6146 7.46935C11.9273 7.19735 12.0686 6.78735 12.1373 6.37935L12.3666 5.00002M14.0386 3.66669V7.00002M5.73397 3.28869C6.79197 2.41069 7.73464 1.93935 9.68997 1.42069C9.91056 1.36245 10.1426 1.3636 10.3626 1.42402C12.0933 1.90002 13.028 2.32269 14.28 3.26269C14.3333 3.30269 14.3493 3.37735 14.312 3.43269C13.9033 4.03402 12.9906 4.52135 10.752 5.38935C10.2857 5.56877 9.76891 5.56591 9.30464 5.38135C6.92064 4.43469 5.82464 3.92802 5.69131 3.40202C5.68697 3.38103 5.68868 3.35924 5.69623 3.33918C5.70378 3.31912 5.71687 3.30161 5.73397 3.28869Z" stroke="#F4F4F4" stroke-width="1.5" stroke-linecap="round" stroke-linejoin="round"/>
</g>
<defs>
<clipPath id="clip0_894_67">
<rect width="16" height="16" fill="white"/>
</clipPath>
</defs>
</svg>
