<svg width="16" height="16" viewBox="0 0 16 16" fill="none" xmlns="http://www.w3.org/2000/svg">
<g filter="url(#filter0_d_393_1361)">
<path d="M14.7375 0.678137C14.0531 -0.0062378 12.9469 -0.0062378 12.2625 0.678137L11.5 1.44064L14.5594 4.50001L15.3219 3.73751C16.0062 3.05314 16.0062 1.94689 15.3219 1.26251L14.7375 0.678137ZM5.3875 7.55314C5.19687 7.74376 5.05 7.97814 4.96562 8.23751L4.04063 11.0125C3.95 11.2813 4.02188 11.5781 4.22188 11.7813C4.42188 11.9844 4.71875 12.0531 4.99062 11.9625L7.76562 11.0375C8.02187 10.9531 8.25625 10.8063 8.45 10.6156L13.5 5.55939L10.4406 2.50001L5.3875 7.55314ZM3 2.00001C1.34375 2.00001 0 3.34376 0 5.00001V13C0 14.6563 1.34375 16 3 16H11C12.6562 16 14 14.6563 14 13V10C14 9.44689 13.5531 9.00001 13 9.00001C12.4469 9.00001 12 9.44689 12 10V13C12 13.5531 11.5531 14 11 14H3C2.44687 14 2 13.5531 2 13V5.00001C2 4.44689 2.44687 4.00001 3 4.00001H6C6.55313 4.00001 7 3.55314 7 3.00001C7 2.44689 6.55313 2.00001 6 2.00001H3Z" fill="#606060"/>
</g>
<defs>
<filter id="filter0_d_393_1361" x="-4" y="0.164856" width="23.8351" height="23.8351" filterUnits="userSpaceOnUse" color-interpolation-filters="sRGB">
<feFlood flood-opacity="0" result="BackgroundImageFix"/>
<feColorMatrix in="SourceAlpha" type="matrix" values="0 0 0 0 0 0 0 0 0 0 0 0 0 0 0 0 0 0 127 0" result="hardAlpha"/>
<feOffset dy="4"/>
<feGaussianBlur stdDeviation="2"/>
<feComposite in2="hardAlpha" operator="out"/>
<feColorMatrix type="matrix" values="0 0 0 0 0 0 0 0 0 0 0 0 0 0 0 0 0 0 0.25 0"/>
<feBlend mode="normal" in2="BackgroundImageFix" result="effect1_dropShadow_393_1361"/>
<feBlend mode="normal" in="SourceGraphic" in2="effect1_dropShadow_393_1361" result="shape"/>
</filter>
</defs>
</svg>
