<svg width="14" height="14" viewBox="0 0 14 14" fill="none" xmlns="http://www.w3.org/2000/svg">
<path d="M13.1667 6.99998C13.1677 7.80962 13.009 8.61151 12.6995 9.35969C12.3901 10.1079 11.936 10.7876 11.3633 11.36C10.7904 11.933 10.1102 12.3876 9.36148 12.6976C8.61279 13.0076 7.81035 13.167 7.00002 13.1666C6.12788 13.1686 5.26536 12.9845 4.47002 12.6266L1.89202 13.008C1.76402 13.0289 1.63285 13.0182 1.50991 12.9769C1.38697 12.9356 1.27597 12.8649 1.18655 12.771C1.09714 12.677 1.03201 12.5627 0.996834 12.4378C0.961654 12.313 0.957483 12.1815 0.984683 12.0546L1.34268 9.43931C1.00214 8.67142 0.828539 7.83998 0.833349 6.99998C0.832314 6.19034 0.991072 5.38844 1.30052 4.64027C1.60997 3.89209 2.06404 3.21235 2.63668 2.63998C3.20961 2.06693 3.88986 1.61241 4.63855 1.30241C5.38724 0.992406 6.18969 0.833005 7.00002 0.833313C8.63643 0.833422 10.2058 1.48325 11.3633 2.63998C11.9357 3.21256 12.3896 3.89236 12.699 4.64048C13.0084 5.38861 13.1674 6.19039 13.1667 6.99998Z" stroke="#606060" stroke-width="1.5" stroke-linecap="round" stroke-linejoin="round"/>
</svg>
