<svg width="14" height="14" viewBox="0 0 14 14" fill="none" xmlns="http://www.w3.org/2000/svg">
<path d="M8.66711 7.82571C8.47016 7.82565 8.2749 7.86468 8.0929 7.93997C7.91084 8.01531 7.74496 8.1259 7.60559 8.26517C7.46635 8.40436 7.35582 8.56963 7.2804 8.7515C7.20495 8.93347 7.16622 9.12872 7.16614 9.32571C7.16607 9.52274 7.20506 9.71788 7.2804 9.89993C7.35573 10.082 7.46633 10.2479 7.60559 10.3872C7.74478 10.5264 7.9101 10.637 8.09192 10.7124C8.27387 10.7878 8.46918 10.8266 8.66614 10.8267C9.06396 10.8268 9.44528 10.6685 9.72668 10.3872C10.0081 10.106 10.167 9.72458 10.1671 9.32669C10.1672 8.92892 10.0088 8.54756 9.72766 8.26614C9.44644 7.98474 9.06494 7.82591 8.66711 7.82571ZM8.06653 3.62747L4.06653 8.96048L3.76575 9.36087L4.16614 9.66068L5.23254 10.4605L5.63293 10.7603L5.93274 10.3599L9.93274 5.02689L10.2325 4.6265L9.83215 4.32669L8.76575 3.52689L8.36633 3.22708L8.06653 3.62747ZM5.33313 3.1597C4.93522 3.15957 4.55307 3.31788 4.27161 3.59915C3.99027 3.88038 3.83232 4.2619 3.83215 4.6597C3.83202 5.05761 3.99033 5.43976 4.27161 5.72122C4.55284 6.00242 4.93444 6.16054 5.33215 6.16068C5.72997 6.16073 6.1113 6.00243 6.3927 5.72122C6.67412 5.43995 6.833 5.05856 6.83313 4.66068C6.83322 4.26291 6.67479 3.88154 6.39368 3.60013C6.11246 3.31873 5.73095 3.1599 5.33313 3.1597ZM2.44641 9.6304L2.19739 9.48685L0.925903 8.7515C0.887329 8.72895 0.859286 8.69213 0.847778 8.64896C0.836278 8.60577 0.842115 8.55978 0.86438 8.52103L0.863403 8.52005L1.59973 7.25052L1.74426 6.99954L1.59973 6.74954L0.863403 5.47806V5.47708L0.841919 5.41556C0.839097 5.394 0.841214 5.37211 0.846802 5.3511C0.85244 5.32999 0.861843 5.30987 0.875122 5.29251C0.888397 5.27519 0.905065 5.26049 0.92395 5.24954L2.19739 4.51321L2.44739 4.36868V2.61478C2.44739 2.57057 2.46496 2.52787 2.49622 2.49661C2.52746 2.46542 2.57023 2.44778 2.61438 2.44778H4.36829L4.51282 2.19778L5.24915 0.925323V0.924347C5.27126 0.886214 5.30812 0.85861 5.35071 0.847198C5.37192 0.841568 5.39381 0.839509 5.41516 0.842316L5.47668 0.8638L6.75012 1.60013L7.00012 1.74466L7.25012 1.60013L8.52356 0.8638C8.54244 0.852941 8.56348 0.846138 8.58508 0.843292C8.6066 0.840461 8.62855 0.841647 8.64954 0.847198C8.67091 0.852932 8.69092 0.863267 8.70813 0.876495L8.7511 0.925323L9.48645 2.19778L9.63098 2.44778H11.3859C11.4298 2.44791 11.4719 2.46559 11.5031 2.49661C11.5343 2.52787 11.5519 2.57057 11.5519 2.61478V4.36966L11.8019 4.51419L13.0753 5.25052C13.1133 5.27263 13.1411 5.30867 13.1525 5.3511C13.1582 5.37257 13.1593 5.39493 13.1564 5.41653L13.1359 5.47806L12.3995 6.74954L12.255 6.99954L12.3995 7.25052L13.1349 8.522V8.52298C13.1458 8.54191 13.1535 8.56283 13.1564 8.5845C13.1592 8.60603 13.158 8.62797 13.1525 8.64896C13.1468 8.67012 13.1365 8.69017 13.1232 8.70755C13.1099 8.72486 13.0932 8.7396 13.0743 8.75052L11.8009 9.48685L11.5509 9.6304V11.3853C11.5509 11.4295 11.5333 11.4722 11.5021 11.5034C11.4709 11.5344 11.4288 11.5522 11.3849 11.5523H9.63L9.48547 11.8023L8.75012 13.0747C8.728 13.1129 8.69218 13.1414 8.64954 13.1529C8.60684 13.1643 8.56084 13.1574 8.52258 13.1353L7.24915 12.3999L6.99915 12.2554L6.74915 12.3999L5.47766 13.1353C5.45125 13.1505 5.42218 13.1575 5.39465 13.1577C5.36512 13.1573 5.33626 13.1501 5.31067 13.1353C5.2853 13.1206 5.26427 13.0998 5.24915 13.0747L4.51282 11.8013L4.36829 11.5523H2.6134C2.5692 11.5523 2.52649 11.5347 2.49524 11.5034C2.46399 11.4722 2.44641 11.4295 2.44641 11.3853V9.6304Z" stroke="#606060"/>
</svg>
