<svg width="16" height="16" viewBox="0 0 16 16" fill="none" xmlns="http://www.w3.org/2000/svg">
<path d="M4 9.5999C4.88366 9.5999 5.6 8.88356 5.6 7.9999C5.6 7.11625 4.88366 6.3999 4 6.3999C3.11635 6.3999 2.4 7.11625 2.4 7.9999C2.4 8.88356 3.11635 9.5999 4 9.5999Z" fill="#202020"/>
<path d="M8 9.5999C8.88366 9.5999 9.6 8.88356 9.6 7.9999C9.6 7.11625 8.88366 6.3999 8 6.3999C7.11635 6.3999 6.4 7.11625 6.4 7.9999C6.4 8.88356 7.11635 9.5999 8 9.5999Z" fill="#202020"/>
<path d="M12 9.5999C12.8837 9.5999 13.6 8.88356 13.6 7.9999C13.6 7.11625 12.8837 6.3999 12 6.3999C11.1163 6.3999 10.4 7.11625 10.4 7.9999C10.4 8.88356 11.1163 9.5999 12 9.5999Z" fill="#202020"/>
</svg>
