<svg width="12" height="16" viewBox="0 0 12 16" fill="none" xmlns="http://www.w3.org/2000/svg">
<path d="M10.6666 3.33334L5.99996 1.33334L1.33329 3.33334L3.66663 4.33334V5.66668M10.6666 3.33334L8.33329 4.33334V5.66668M10.6666 3.33334V6.00001M3.66663 5.66668C3.66663 5.66668 4.44463 5.33334 5.99996 5.33334C7.55529 5.33334 8.33329 5.66668 8.33329 5.66668M3.66663 5.66668V6.33334C3.66663 6.63976 3.72698 6.94318 3.84424 7.22627C3.9615 7.50936 4.13337 7.76659 4.35004 7.98326C4.56671 8.19993 4.82394 8.3718 5.10703 8.48906C5.39012 8.60632 5.69354 8.66668 5.99996 8.66668C6.30638 8.66668 6.60979 8.60632 6.89289 8.48906C7.17598 8.3718 7.4332 8.19993 7.64987 7.98326C7.86654 7.76659 8.03842 7.50936 8.15568 7.22627C8.27294 6.94318 8.33329 6.63976 8.33329 6.33334V5.66668M3.18863 11.1353C2.45529 11.592 0.531293 12.5233 1.70263 13.6893C2.27529 14.26 2.91329 14.6667 3.71396 14.6667H8.28596C9.08729 14.6667 9.72462 14.2593 10.2973 13.6893C11.4686 12.5233 9.54529 11.592 8.81129 11.136C7.96735 10.6116 6.99356 10.3337 5.99996 10.3337C5.00636 10.3337 4.03257 10.6116 3.18863 11.136" stroke="#606060" stroke-width="1.5" stroke-linecap="round" stroke-linejoin="round"/>
</svg>
